<svg width="22" height="17" viewBox="0 0 22 17" fill="none" xmlns="http://www.w3.org/2000/svg">
<path d="M10.9996 14.6664C10.4355 14.6652 9.8727 14.6127 9.31812 14.5094C9.14608 14.4819 8.98946 14.394 8.87632 14.2615C8.76318 14.129 8.70091 13.9606 8.70066 13.7864C8.70249 13.6789 8.72754 13.5732 8.77409 13.4763C8.82064 13.3795 8.88759 13.2938 8.97034 13.2253C9.0531 13.1567 9.1497 13.1069 9.25353 13.0792C9.35735 13.0515 9.46594 13.0466 9.57185 13.0648C10.0426 13.1534 10.5206 13.1986 10.9996 13.1997C15.3439 13.1997 19.1168 9.39595 20.3033 8.06643C19.5127 7.18142 18.6439 6.36952 17.7074 5.64059C17.6312 5.5816 17.5674 5.50819 17.5196 5.42455C17.4718 5.3409 17.4409 5.24866 17.4288 5.15309C17.4042 4.96007 17.4573 4.76521 17.5765 4.61137C17.6956 4.45752 17.871 4.35731 18.064 4.33276C18.1595 4.3206 18.2566 4.32739 18.3495 4.35273C18.4425 4.37808 18.5295 4.42148 18.6057 4.48047C19.7996 5.40035 20.8859 6.45199 21.8441 7.61544C21.9451 7.74448 22 7.90364 22 8.06753C22 8.23142 21.9451 8.39059 21.8441 8.51963C21.6468 8.76969 16.9572 14.6664 10.9996 14.6664Z" fill="#999999"/>
<path d="M18.8514 0.214708C18.7138 0.0772306 18.5273 0 18.3329 0C18.1384 0 17.952 0.0772306 17.8144 0.214708L15.4825 2.54669C14.5996 2.12123 13.6654 1.81165 12.7032 1.62563C12.1415 1.52001 11.5712 1.46674 10.9996 1.4665C5.04209 1.4665 0.35247 7.36317 0.155938 7.61397C0.0549002 7.74301 0 7.90218 0 8.06607C0 8.22996 0.0549002 8.38912 0.155938 8.51816C1.11311 9.6806 2.19846 10.7313 3.39137 11.6502C3.95567 12.0925 4.54689 12.4993 5.16162 12.8683L3.14791 14.8812C3.07787 14.9489 3.022 15.0298 2.98357 15.1193C2.94514 15.2087 2.92491 15.305 2.92406 15.4023C2.92322 15.4997 2.94177 15.5963 2.97864 15.6864C3.01551 15.7765 3.06997 15.8584 3.13882 15.9272C3.20767 15.9961 3.28955 16.0506 3.37967 16.0874C3.4698 16.1243 3.56636 16.1429 3.66373 16.142C3.7611 16.1412 3.85733 16.1209 3.9468 16.0825C4.03627 16.0441 4.11719 15.9882 4.18483 15.9182L18.8514 1.25163C18.9888 1.11411 19.0661 0.927621 19.0661 0.73317C19.0661 0.538718 18.9888 0.352227 18.8514 0.214708ZM4.2919 10.493C3.35537 9.76385 2.48653 8.9517 1.69592 8.06643C2.88245 6.73764 6.65541 2.93315 10.9996 2.93315C11.4821 2.93353 11.9635 2.9787 12.4377 3.06808C13.1015 3.19438 13.75 3.39104 14.3722 3.65474L13.0214 5.00553C12.3164 4.53967 11.4721 4.33164 10.6313 4.41664C9.79052 4.50163 9.00492 4.87443 8.40738 5.47198C7.80984 6.06952 7.43704 6.85512 7.35204 7.69588C7.26704 8.53665 7.47507 9.38097 7.94093 10.086L6.23301 11.7969C5.55385 11.4121 4.90494 10.9762 4.2919 10.493ZM9.01965 9.00802C8.87674 8.71459 8.80156 8.39281 8.79965 8.06643C8.7998 7.48466 9.02961 6.92648 9.43912 6.51325C9.76558 6.20278 10.1775 5.99707 10.6218 5.92258C11.0661 5.84809 11.5226 5.90823 11.9324 6.09525L9.01965 9.00802Z" fill="#999999"/>
</svg>
